<?xml version="1.0" encoding="UTF-8"?>
<svg width="256" height="256" viewBox="0 0 256 256" xmlns="http://www.w3.org/2000/svg">
  <defs>
    <linearGradient id="bg" x1="0" y1="0" x2="1" y2="1">
      <stop offset="0%" stop-color="#021d47"/>
      <stop offset="100%" stop-color="#0578a0"/>
    </linearGradient>
  </defs>

  <rect width="256" height="256" rx="48" fill="url(#bg)"/>

  <!-- 4 staande boeken -->
  <rect x="16" y="46" width="38" height="110" rx="4" fill="#0196b1"/>
  <rect x="16" y="46" width="6"  height="110" rx="2" fill="#017a90"/>
  <rect x="20" y="66" width="28" height="3" rx="1" fill="white" opacity="0.35"/>
  <rect x="20" y="74" width="20" height="3" rx="1" fill="white" opacity="0.35"/>
  <rect x="20" y="128" width="24" height="3" rx="1" fill="white" opacity="0.20"/>

  <rect x="58" y="34" width="34" height="122" rx="4" fill="#034bac"/>
  <rect x="58" y="34" width="6"  height="122" rx="2" fill="#023a88"/>
  <rect x="63" y="54" width="23" height="3" rx="1" fill="white" opacity="0.35"/>
  <rect x="63" y="62" width="16" height="3" rx="1" fill="white" opacity="0.35"/>
  <rect x="63" y="134" width="20" height="3" rx="1" fill="white" opacity="0.20"/>

  <rect x="96" y="42" width="36" height="114" rx="4" fill="#1a6fc4"/>
  <rect x="96" y="42" width="6"  height="114" rx="2" fill="#155898"/>
  <rect x="101" y="62" width="25" height="3" rx="1" fill="white" opacity="0.35"/>
  <rect x="101" y="70" width="18" height="3" rx="1" fill="white" opacity="0.35"/>
  <rect x="101" y="128" width="22" height="3" rx="1" fill="white" opacity="0.20"/>

  <rect x="136" y="38" width="32" height="118" rx="4" fill="#027a8e"/>
  <rect x="136" y="38" width="6"  height="118" rx="2" fill="#016070"/>
  <rect x="141" y="58" width="21" height="3" rx="1" fill="white" opacity="0.35"/>
  <rect x="141" y="66" width="15" height="3" rx="1" fill="white" opacity="0.35"/>
  <rect x="141" y="126" width="18" height="3" rx="1" fill="white" opacity="0.20"/>

  <!-- Plankrand -->
  <rect x="10" y="155" width="236" height="5" rx="2" fill="#0196b1" opacity="0.45"/>

  <!-- Opengeslagen boek: geschaald van 1416x900 naar ~216x137, gecentreerd op y=163..237 -->
  <g transform="translate(20, 158) scale(0.1525, 0.0867)">
    <path transform="translate(261,21)" d="m0 0h45l21 1 42 6 29 6 36 9 38 13 28 11 28 13 17 8 19 10 24 13 14 9 22 14 17 12 21 16 17 13 11 9 10 8 5-3 10-10 13-10 18-14 18-13 24-16 21-13 13-8 12-6 19-10 15-8 34-15 26-10 35-12 26-7 32-7 38-6 29-3h54l26 2 3 4 12 36 33 98 23 70 12 36 12 37 13 38 13 40 13 38 16 50 12 36 24 73 16 47 14 43 5 15v6l-5-1-16-5-30-8-39-9-35-7-32-5-48-6-56-4h-56l-45 3-34 4-35 6-22 5-24 6-36 12-19 7-23 10-16 8-22 12-18 11-19 13-13 10-9 7-20 18-15 15-1-3 8-14 14-19 9-11 11-13 7-8 15-15 8-7 17-14 13-10 14-10 15-10 14-9 25-14 28-13 21-8 17-6 21-7 36-9 49-9 25-3 48-3h46l42 3 35 4 39 6 20 4-3-10-11-33-8-26-12-36-17-53-5-14-4-15-12-36-13-42-12-37-5-17-12-36-11-34-14-45-8-25-16-49-5-17-2-3-21 1-35 3-38 5-36 7-28 7-31 9-21 7-32 13-26 12-23 12-24 15-12 9-13 10h-2v2l-11 9-7 7-8 7-12 12-8 11-5 54-5 72-5 62-7 94-4 48-3 46-5 59-4 55-1 8-2-1-2-13-4-54-2-36-3-32-4-53-3-40-3-47-2-16-5-67-5-68-3-33-2-36-8-11-11-11v-2h-2v-2h-2v-2h-2v-2l-4-2-14-13-9-7-12-9-14-10-24-15-27-14-19-9-31-12-37-12-34-9-39-8-45-6-26-2-15-1h-15l-18 56-13 41-11 35-12 36-11 35-24 75-24 74-13 42-13 40-11 35-17 51-2 7 38-7 36-5 36-3 34-2h47l37 3 42 5 31 6 32 8 35 11 27 11 20 9 24 12 24 14 19 12 12 9 11 9 9 7 10 9 8 7 7 7 8 7 11 12 20 25 13 19 4 6 1 6-3-1-4-5v-2l-4-2-12-12-22-18-11-8-17-12-15-9-21-12-17-9-30-13-35-13-27-8-36-8-14-3-26-4-25-3-53-4h-52l-46 3-29 3-26 3-38 6-36 7-42 10-33 9-10 3h-4l1-5 14-41 14-44 13-38 7-22 12-36 12-37 48-144 26-80 11-31 16-50 12-35 13-40 18-54 3-8 2-1z" fill="#0196b1"/>
    <path transform="translate(1073,686)" d="m0 0h19l46 2 48 4 45 6 49 9 31 7 36 9 37 11 1 3-12-1-39-7-39-5-61-5-15-1-37-1h-16l-43 1-53 4-35 5-38 7-44 11-29 9-34 13-20 9-20 10-27 16-19 14-5 5-4 5-4 18-4 8-5 6-9 4-9 1h-135l-8-3-8-6-5-10-2-14-7-11-9-8-15-10-15-9-27-14-28-13-30-11-29-9-44-11-32-6-27-4-38-4-28-2h-90l-72 5-43 5-45 7-4 1h-9l1-2 26-8 38-10 37-8 41-8 33-5 35-4 33-3 19-1h75l41 3 33 4 28 5 36 8 36 11 27 10 24 11 16 8 19 10 19 12 15 10 16 12 11 9 20 18 6 5 4-2 13-12 11-10 14-11 11-8 16-11 21-13 33-17 25-11 24-9 32-10 38-9 34-6 31-4 21-2z" fill="#034bac"/>
    <path transform="translate(1188,403)" d="m0 0h39l2 4v4l-2 1-59 1-23 1-32 3-20 3-17 2-31 6-14 3-32 8-43 14-35 15-25 11-25 15-11 6-25 17-13 11-11 9-13 12-16 16h-2l-2 4-4 1-2-4 6-8 23-23 13-11 10-8 14-10 19-13 11-6 9-6 12-6 19-10 20-9 25-10 36-12 31-9 37-8 29-5 38-5 18-2 15-1z" fill="#0196b1"/>
    <path transform="translate(174,403)" d="m0 0h37l47 2 46 6 27 4 30 6 29 7 32 9 23 8 25 10 19 9 16 8 26 14 22 14 16 12 10 7 10 9 10 8 25 25 3 4v5l-5-1-15-15v-2l-4-2-9-9-22-18-15-11-24-16-27-15-15-8-27-12-24-9-29-10-26-7-39-9-21-4-28-4-44-4-23-1-52-1-7-1 1-7z" fill="#0196b1"/>
    <path transform="translate(199,336)" d="m0 0h61l33 2 39 5 19 3 41 9 27 7 36 12 30 12 23 11 14 8 14 7 16 10 9 6 10 7 14 11 12 9v2l4 2 8 8 5 4 7 8 5 6 1 6-7-1-14-15-10-10-8-7-15-12-14-10-25-16-16-9-16-8-21-10-27-11-27-9-45-12-35-7-29-4-36-4-30-2-51-1-4-3v-3z" fill="#0196b1"/>
    <path transform="translate(1134,336)" d="m0 0h67l1 5-3 2-53 1-18 1-18 2-31 3-28 4-42 9-24 6-36 12-28 11-20 9-25 13-14 8-18 12-17 12-14 11-17 16-17 17-6 1 1-6 9-10 7-8 7-6 5-5 13-10 12-9 14-10 17-11 21-12 21-11 8-4 10-4 16-7 20-7 25-8 25-7 31-7 25-5 19-3 37-4z" fill="#0196b1"/>
    <path transform="translate(1122,266)" d="m0 0h58l3 3v3l-2 1-40 1-49 3-39 5-25 4-34 7-28 8-45 16-16 7-29 14-19 11-16 10-13 10-10 8-13 11-10 9h-2l-2 4-12 12-6 1-1-4 5-6 6-5 6-7 5-5 11-10 17-13 11-8 18-12 18-10 24-13 14-6 13-6 24-9 24-8 37-10 31-6 16-3 43-5z" fill="#0196b1"/>
    <path transform="translate(220,266)" d="m0 0h60l26 2 47 6 32 6 36 9 35 11 33 13 29 14 21 11 19 12 17 12 18 14 8 6 4 5 5 5 8 7 7 8 2 2-1 5-4-1-8-7-13-13-8-7-12-10-11-8-15-11-19-12-14-8-23-11-27-12-44-15-28-7-42-9-31-4-30-3-30-2-47-1-2-3z" fill="#0196b1"/>
    <path transform="translate(1119,196)" d="m0 0h33l5 1 1 4-2 4-44 1-48 3-35 4-39 8-39 11-22 7-38 16-20 10-20 11-12 8-32 24-17 17-6 5-6 6h-5l1-6 21-21 8-7 11-9 19-14 16-10 17-10 17-9 18-8 11-5 16-6 29-10 31-8 31-6 15-3 28-4 35-3z" fill="#0196b1"/>
    <path transform="translate(243,197)" d="m0 0h53l26 2 37 4 24 4 37 8 28 8 35 12 26 12 25 12 14 8 19 12 17 12 13 11 2 1v2l4 2 20 20 4 6-1 4-5-1-10-10-5-6-3-2v-2l-4-2-10-9-14-10-12-9-12-8-17-10-31-16-29-12-25-8-35-10-23-5-31-5-34-4-33-2-50-1z" fill="#0196b1"/>
    <path transform="translate(1094,127)" d="m0 0h39l3 2v6l-57 2-27 2-32 4-24 4-29 6-33 10-30 11-30 14-21 11-17 11-10 7-12 9-10 9-11 9-2 3h-2v2l-5 5-6 5-5-1-1-3 7-8 24-22h2l1-3 17-12 15-10 13-8 17-10 21-10 27-11 23-8 25-7 30-7 17-3 24-4 37-4z" fill="#0196b1"/>
    <path transform="translate(267,126)" d="m0 0 40 1 35 2 37 5 32 6 30 7 32 10 21 8 17 7 15 8 14 7 27 16 16 12 11 8 11 10 8 7 11 11 3 4-1 4-3 1-6-5-7-8-15-14-10-8-19-14-13-8-17-10-24-12-32-13-27-9-36-9-31-6-31-4-34-3-57-2 1-7z" fill="#0196b1"/>
    <path transform="translate(175,715)" d="m0 0h89l32 2 39 4 8 1v1h-10l-28-3-28-2h-90l-72 5-37 4h-6l4-2 31-4 20-2 23-2z" fill="#0196b1"/>
    <path transform="translate(1144,715)" d="m0 0h67l24 1 50 4 38 5 17 3v1l-13-1-32-4-61-5-15-1-37-1h-16l-43 1-14 1h-14v-1l25-2z" fill="#0196b1"/>
  </g>
</svg>
