<?xml version="1.0" encoding="UTF-8" standalone="no"?>
<svg
   width="256"
   height="256"
   viewBox="0 0 256 256"
   version="1.1"
   id="svg29"
   xmlns="http://www.w3.org/2000/svg"
   xmlns:svg="http://www.w3.org/2000/svg">
  <defs
     id="defs2">
    <linearGradient
       id="bg"
       x1="0"
       y1="0"
       x2="1"
       y2="1">
      <stop
         offset="0%"
         stop-color="#021d47"
         id="stop1" />
      <stop
         offset="100%"
         stop-color="#0578a0"
         id="stop2" />
    </linearGradient>
  </defs>
  <!-- Achtergrond -->
  <rect
     width="256"
     height="256"
     rx="48"
     fill="url(#bg)"
     id="rect2" />
  <!-- === 4 STAANDE BOEKEN (iets kleiner zodat tandwiel past) === -->
  <!-- Boek 1 - cyaan -->
  <rect
     x="16"
     y="36"
     width="34"
     height="100"
     rx="4"
     fill="#0196b1"
     id="rect3" />
  <rect
     x="16"
     y="36"
     width="5"
     height="100"
     rx="2"
     fill="#017a90"
     id="rect4" />
  <rect
     x="20"
     y="54"
     width="24"
     height="3"
     rx="1"
     fill="white"
     opacity="0.35"
     id="rect5" />
  <rect
     x="20"
     y="62"
     width="17"
     height="3"
     rx="1"
     fill="white"
     opacity="0.35"
     id="rect6" />
  <!-- Boek 2 - donkerblauw -->
  <rect
     x="54"
     y="26"
     width="30"
     height="110"
     rx="4"
     fill="#034bac"
     id="rect7" />
  <rect
     x="54"
     y="26"
     width="5"
     height="110"
     rx="2"
     fill="#023a88"
     id="rect8" />
  <rect
     x="58"
     y="44"
     width="20"
     height="3"
     rx="1"
     fill="white"
     opacity="0.35"
     id="rect9" />
  <rect
     x="58"
     y="52"
     width="14"
     height="3"
     rx="1"
     fill="white"
     opacity="0.35"
     id="rect10" />
  <!-- Boek 3 - middenblauw -->
  <rect
     x="88"
     y="32"
     width="32"
     height="104"
     rx="4"
     fill="#1a6fc4"
     id="rect11" />
  <rect
     x="88"
     y="32"
     width="5"
     height="104"
     rx="2"
     fill="#155898"
     id="rect12" />
  <rect
     x="92"
     y="50"
     width="22"
     height="3"
     rx="1"
     fill="white"
     opacity="0.35"
     id="rect13" />
  <rect
     x="92"
     y="58"
     width="15"
     height="3"
     rx="1"
     fill="white"
     opacity="0.35"
     id="rect14" />
  <!-- Boek 4 - teal -->
  <rect
     x="124"
     y="28"
     width="28"
     height="108"
     rx="4"
     fill="#027a8e"
     id="rect15" />
  <rect
     x="124"
     y="28"
     width="5"
     height="108"
     rx="2"
     fill="#016070"
     id="rect16" />
  <rect
     x="128"
     y="46"
     width="18"
     height="3"
     rx="1"
     fill="white"
     opacity="0.35"
     id="rect17" />
  <rect
     x="128"
     y="54"
     width="13"
     height="3"
     rx="1"
     fill="white"
     opacity="0.35"
     id="rect18" />
  <!-- Plankrand -->
  <rect
     x="10"
     y="134"
     width="168"
     height="4"
     rx="2"
     fill="#0196b1"
     opacity="0.40"
     id="rect19" />
  <!-- === OPENGESLAGEN BOEK PLACEHOLDER (links, kleiner) === -->
  <!-- Vervang de gehele groep hieronder door jouw eigen open-boek SVG.        -->
  <!-- De beschikbare ruimte is approximately x=14..158, y=142..210           -->
  <!-- === TANDWIEL (rechtsonder) === -->
  <g
     transform="translate(196,196)"
     id="g29">
    <circle
       r="34"
       fill="#034bac"
       id="circle20" />
    <circle
       r="26"
       fill="#0196b1"
       id="circle21" />
    <!-- Tanden -->
    <rect
       x="-5"
       y="-38"
       width="10"
       height="12"
       rx="2.5"
       fill="#034bac"
       id="rect21" />
    <rect
       x="-5"
       y="26"
       width="10"
       height="12"
       rx="2.5"
       fill="#034bac"
       id="rect22" />
    <rect
       x="26"
       y="-5"
       width="12"
       height="10"
       rx="2.5"
       fill="#034bac"
       id="rect23" />
    <rect
       x="-38"
       y="-5"
       width="12"
       height="10"
       rx="2.5"
       fill="#034bac"
       id="rect24" />
    <rect
       x="15"
       y="-34"
       width="10"
       height="12"
       rx="2.5"
       fill="#034bac"
       transform="rotate(45)"
       id="rect25" />
    <rect
       x="15"
       y="-34"
       width="10"
       height="12"
       rx="2.5"
       fill="#034bac"
       transform="rotate(135)"
       id="rect26" />
    <rect
       x="15"
       y="-34"
       width="10"
       height="12"
       rx="2.5"
       fill="#034bac"
       transform="rotate(225)"
       id="rect27" />
    <rect
       x="15"
       y="-34"
       width="10"
       height="12"
       rx="2.5"
       fill="#034bac"
       transform="rotate(315)"
       id="rect28" />
    <circle
       r="12"
       fill="#034bac"
       id="circle28" />
    <circle
       r="7"
       fill="white"
       opacity="0.88"
       id="circle29" />
  </g>
  <g
     transform="matrix(0.11863292,0,0,0.05742607,6.3542113,141.76703)"
     id="g36">
    <path
       transform="translate(261,21)"
       d="m 0,0 h 45 l 21,1 42,6 29,6 36,9 38,13 28,11 28,13 17,8 19,10 24,13 14,9 22,14 17,12 21,16 17,13 11,9 10,8 5,-3 10,-10 13,-10 18,-14 18,-13 24,-16 21,-13 13,-8 12,-6 19,-10 15,-8 34,-15 26,-10 35,-12 26,-7 32,-7 38,-6 29,-3 h 54 l 26,2 3,4 12,36 33,98 23,70 12,36 12,37 13,38 13,40 13,38 16,50 12,36 24,73 16,47 14,43 5,15 v 6 l -5,-1 -16,-5 -30,-8 -39,-9 -35,-7 -32,-5 -48,-6 -56,-4 h -56 l -45,3 -34,4 -35,6 -22,5 -24,6 -36,12 -19,7 -23,10 -16,8 -22,12 -18,11 -19,13 -13,10 -9,7 -20,18 -15,15 -1,-3 8,-14 14,-19 9,-11 11,-13 7,-8 15,-15 8,-7 17,-14 13,-10 14,-10 15,-10 14,-9 25,-14 28,-13 21,-8 17,-6 21,-7 36,-9 49,-9 25,-3 48,-3 h 46 l 42,3 35,4 39,6 20,4 -3,-10 -11,-33 -8,-26 -12,-36 -17,-53 -5,-14 -4,-15 -12,-36 -13,-42 -12,-37 -5,-17 -12,-36 -11,-34 -14,-45 -8,-25 -16,-49 -5,-17 -2,-3 -21,1 -35,3 -38,5 -36,7 -28,7 -31,9 -21,7 -32,13 -26,12 -23,12 -24,15 -12,9 -13,10 h -2 v 2 l -11,9 -7,7 -8,7 -12,12 -8,11 -5,54 -5,72 -5,62 -7,94 -4,48 -3,46 -5,59 -4,55 -1,8 -2,-1 -2,-13 -4,-54 -2,-36 -3,-32 -4,-53 -3,-40 -3,-47 -2,-16 -5,-67 -5,-68 -3,-33 -2,-36 -8,-11 -11,-11 v -2 h -2 v -2 h -2 v -2 h -2 v -2 l -4,-2 -14,-13 -9,-7 -12,-9 L 322,134 298,119 271,105 252,96 221,84 184,72 150,63 111,55 66,49 40,47 25,46 H 10 l -18,56 -13,41 -11,35 -12,36 -11,35 -24,75 -24,74 -13,42 -13,40 -11,35 -17,51 -2,7 38,-7 36,-5 36,-3 34,-2 h 47 l 37,3 42,5 31,6 32,8 35,11 27,11 20,9 24,12 24,14 19,12 12,9 11,9 9,7 10,9 8,7 7,7 8,7 11,12 20,25 13,19 4,6 1,6 -3,-1 -4,-5 v -2 l -4,-2 -12,-12 -22,-18 -11,-8 -17,-12 -15,-9 -21,-12 -17,-9 -30,-13 -35,-13 -27,-8 -36,-8 -14,-3 -26,-4 -25,-3 -53,-4 H 13 l -46,3 -29,3 -26,3 -38,6 -36,7 -42,10 -33,9 -10,3 h -4 l 1,-5 14,-41 14,-44 13,-38 7,-22 12,-36 12,-37 48,-144 26,-80 11,-31 16,-50 12,-35 13,-40 18,-54 3,-8 2,-1 z"
       fill="#0196b1"
       id="path23" />
    <path
       transform="translate(1073,686)"
       d="m 0,0 h 19 l 46,2 48,4 45,6 49,9 31,7 36,9 37,11 1,3 -12,-1 -39,-7 -39,-5 -61,-5 -15,-1 -37,-1 H 93 l -43,1 -53,4 -35,5 -38,7 -44,11 -29,9 -34,13 -20,9 -20,10 -27,16 -19,14 -5,5 -4,5 -4,18 -4,8 -5,6 -9,4 -9,1 h -135 l -8,-3 -8,-6 -5,-10 -2,-14 -7,-11 -9,-8 -15,-10 -15,-9 -27,-14 -28,-13 -30,-11 -29,-9 -44,-11 -32,-6 -27,-4 -38,-4 -28,-2 h -90 l -72,5 -43,5 -45,7 -4,1 h -9 l 1,-2 26,-8 38,-10 37,-8 41,-8 33,-5 35,-4 33,-3 19,-1 h 75 l 41,3 33,4 28,5 36,8 36,11 27,10 24,11 16,8 19,10 19,12 15,10 16,12 11,9 20,18 6,5 4,-2 13,-12 11,-10 14,-11 11,-8 16,-11 21,-13 33,-17 25,-11 24,-9 32,-10 38,-9 34,-6 31,-4 21,-2 z"
       fill="#034bac"
       id="path24" />
    <path
       transform="translate(1188,403)"
       d="m 0,0 h 39 l 2,4 v 4 l -2,1 -59,1 -23,1 -32,3 -20,3 -17,2 -31,6 -14,3 -32,8 -43,14 -35,15 -25,11 -25,15 -11,6 -25,17 -13,11 -11,9 -13,12 -16,16 h -2 l -2,4 -4,1 -2,-4 6,-8 23,-23 13,-11 10,-8 14,-10 19,-13 11,-6 9,-6 12,-6 19,-10 20,-9 25,-10 36,-12 31,-9 37,-8 29,-5 38,-5 18,-2 15,-1 z"
       fill="#0196b1"
       id="path25" />
    <path
       transform="translate(174,403)"
       d="m 0,0 h 37 l 47,2 46,6 27,4 30,6 29,7 32,9 23,8 25,10 19,9 16,8 26,14 22,14 16,12 10,7 10,9 10,8 25,25 3,4 v 5 l -5,-1 -15,-15 v -2 l -4,-2 -9,-9 L 398,120 383,109 359,93 332,78 317,70 290,58 266,49 237,39 211,32 172,23 151,19 123,15 79,11 56,10 4,9 -3,8 -2,1 Z"
       fill="#0196b1"
       id="path26" />
    <path
       transform="translate(199,336)"
       d="m 0,0 h 61 l 33,2 39,5 19,3 41,9 27,7 36,12 30,12 23,11 14,8 14,7 16,10 9,6 10,7 14,11 12,9 v 2 l 4,2 8,8 5,4 7,8 5,6 1,6 -7,-1 -14,-15 -10,-10 -8,-7 L 374,110 360,100 335,84 319,75 303,67 282,57 255,46 228,37 183,25 148,18 119,14 83,10 53,8 2,7 -2,4 V 1 Z"
       fill="#0196b1"
       id="path27" />
    <path
       transform="translate(1134,336)"
       d="m 0,0 h 67 l 1,5 -3,2 -53,1 -18,1 -18,2 -31,3 -28,4 -42,9 -24,6 -36,12 -28,11 -20,9 -25,13 -14,8 -18,12 -17,12 -14,11 -17,16 -17,17 -6,1 1,-6 9,-10 7,-8 7,-6 5,-5 13,-10 12,-9 14,-10 17,-11 21,-12 21,-11 8,-4 10,-4 16,-7 20,-7 25,-8 25,-7 31,-7 25,-5 19,-3 37,-4 z"
       fill="#0196b1"
       id="path28" />
    <path
       transform="translate(1122,266)"
       d="m 0,0 h 58 l 3,3 v 3 l -2,1 -40,1 -49,3 -39,5 -25,4 -34,7 -28,8 -45,16 -16,7 -29,14 -19,11 -16,10 -13,10 -10,8 -13,11 -10,9 h -2 l -2,4 -12,12 -6,1 -1,-4 5,-6 6,-5 6,-7 5,-5 11,-10 17,-13 11,-8 18,-12 18,-10 24,-13 14,-6 13,-6 24,-9 24,-8 37,-10 31,-6 16,-3 43,-5 z"
       fill="#0196b1"
       id="path29" />
    <path
       transform="translate(220,266)"
       d="m 0,0 h 60 l 26,2 47,6 32,6 36,9 35,11 33,13 29,14 21,11 19,12 17,12 18,14 8,6 4,5 5,5 8,7 7,8 2,2 -1,5 -4,-1 -8,-7 -13,-13 -8,-7 -12,-10 -11,-8 L 335,91 316,79 302,71 279,60 252,48 208,33 180,26 138,17 107,13 77,10 47,8 0,7 -2,4 Z"
       fill="#0196b1"
       id="path30" />
    <path
       transform="translate(1119,196)"
       d="m 0,0 h 33 l 5,1 1,4 -2,4 -44,1 -48,3 -35,4 -39,8 -39,11 -22,7 -38,16 -20,10 -20,11 -12,8 -32,24 -17,17 -6,5 -6,6 h -5 l 1,-6 21,-21 8,-7 11,-9 19,-14 16,-10 17,-10 17,-9 18,-8 11,-5 16,-6 29,-10 31,-8 31,-6 15,-3 28,-4 35,-3 z"
       fill="#0196b1"
       id="path31" />
    <path
       transform="translate(243,197)"
       d="m 0,0 h 53 l 26,2 37,4 24,4 37,8 28,8 35,12 26,12 25,12 14,8 19,12 17,12 13,11 2,1 v 2 l 4,2 20,20 4,6 -1,4 -5,-1 -10,-10 -5,-6 -3,-2 v -2 l -4,-2 -10,-9 L 332,98 320,89 308,81 291,71 260,55 231,43 206,35 171,25 148,20 117,15 83,11 50,9 0,8 Z"
       fill="#0196b1"
       id="path32" />
    <path
       transform="translate(1094,127)"
       d="m 0,0 h 39 l 3,2 v 6 l -57,2 -27,2 -32,4 -24,4 -29,6 -33,10 -30,11 -30,14 -21,11 -17,11 -10,7 -12,9 -10,9 -11,9 -2,3 h -2 v 2 l -5,5 -6,5 -5,-1 -1,-3 7,-8 24,-22 h 2 l 1,-3 17,-12 15,-10 13,-8 17,-10 21,-10 27,-11 23,-8 25,-7 30,-7 17,-3 24,-4 37,-4 z"
       fill="#0196b1"
       id="path33" />
    <path
       transform="translate(267,126)"
       d="m 0,0 40,1 35,2 37,5 32,6 30,7 32,10 21,8 17,7 15,8 14,7 27,16 16,12 11,8 11,10 8,7 11,11 3,4 -1,4 -3,1 -6,-5 -7,-8 L 328,107 318,99 299,85 286,77 269,67 245,55 213,42 186,33 150,24 119,18 88,14 54,11 -3,9 -2,2 Z"
       fill="#0196b1"
       id="path34" />
    <path
       transform="translate(175,715)"
       d="m 0,0 h 89 l 32,2 39,4 8,1 V 8 H 158 L 130,5 102,3 H 12 l -72,5 -37,4 h -6 l 4,-2 31,-4 20,-2 23,-2 z"
       fill="#0196b1"
       id="path35" />
    <path
       transform="translate(1144,715)"
       d="m 0,0 h 67 l 24,1 50,4 38,5 17,3 v 1 L 183,13 151,9 90,4 75,3 38,2 H 22 L -21,3 -35,4 H -49 V 3 l 25,-2 z"
       fill="#0196b1"
       id="path36" />
  </g>
</svg>
