<?xml version="1.0" encoding="UTF-8" standalone="no"?>
<svg
   width="800"
   height="505"
   viewBox="0 0 800 505"
   version="1.1"
   id="svg38"
   xmlns="http://www.w3.org/2000/svg"
   xmlns:svg="http://www.w3.org/2000/svg">
  <defs
     id="defs7">
    <linearGradient
       id="bgSplash"
       x1="0"
       y1="0"
       x2="632.45553"
       y2="632.45553"
       gradientTransform="matrix(1.2649111,0,0,0.79056942,0,5)"
       gradientUnits="userSpaceOnUse">
      <stop
         offset="0%"
         stop-color="#021d47"
         id="stop1" />
      <stop
         offset="50%"
         stop-color="#034bac"
         id="stop2" />
      <stop
         offset="100%"
         stop-color="#0196b1"
         id="stop3" />
    </linearGradient>
    <linearGradient
       id="iconBg"
       x1="0"
       y1="0"
       x2="200"
       y2="200"
       gradientUnits="userSpaceOnUse"
       gradientTransform="translate(300,35)">
      <stop
         offset="0%"
         stop-color="#021d47"
         id="stop4" />
      <stop
         offset="100%"
         stop-color="#0578a0"
         id="stop5" />
    </linearGradient>
    <radialGradient
       id="glow"
       cx="400"
       cy="155"
       r="160"
       fx="400"
       fy="155"
       gradientUnits="userSpaceOnUse"
       gradientTransform="translate(0,5)">
      <stop
         offset="0%"
         stop-color="#0196b1"
         stop-opacity="0.18"
         id="stop6" />
      <stop
         offset="100%"
         stop-color="#0196b1"
         stop-opacity="0"
         id="stop7" />
    </radialGradient>
  </defs>
  <!-- Achtergrond -->
  <rect
     width="800"
     height="500"
     fill="url(#bgSplash)"
     id="rect7"
     x="0"
     y="5"
     style="fill:url(#bgSplash)" />
  <path
     id="rect38"
     style="fill:#ecffff;fill-opacity:1"
     d="m 17.67767,505.96356 h 194.93214 a 21.022093,21.022093 45 0 1 21.02209,21.02209 v 76.92175 a 31.055365,31.055365 135 0 1 -31.05537,31.05537 H 15.76657 A 21.022093,21.022093 45 0 1 -5.2555232,613.94068 l 0,-85.04393 A 22.933193,22.933193 135 0 1 17.67767,505.96356 Z"
     transform="matrix(0.50659779,0,0,0.49218529,17.842898,183.76793)" />
  <!-- Subtiele gloed achter icoon -->
  <circle
     cx="400"
     cy="160"
     r="160"
     fill="url(#glow)"
     id="circle7"
     style="fill:url(#glow)" />
  <!-- === APP ICOON (gecentreerd, 200x200) === -->
  <rect
     width="200"
     height="200"
     rx="38"
     fill="url(#iconBg)"
     id="rect8"
     style="fill:url(#iconBg)"
     x="300"
     y="35" />
  <rect
     x="312"
     y="71"
     width="30"
     height="86"
     rx="3"
     fill="#0196b1"
     id="rect9" />
  <rect
     x="312"
     y="71"
     width="5"
     height="86"
     rx="2"
     fill="#017a90"
     id="rect10" />
  <rect
     x="316"
     y="87"
     width="22"
     height="2.5"
     rx="1"
     fill="#ffffff"
     opacity="0.35"
     id="rect11" />
  <rect
     x="316"
     y="94"
     width="15"
     height="2.5"
     rx="1"
     fill="#ffffff"
     opacity="0.35"
     id="rect12" />
  <rect
     x="345"
     y="62"
     width="27"
     height="95"
     rx="3"
     fill="#034bac"
     id="rect13" />
  <rect
     x="345"
     y="62"
     width="5"
     height="95"
     rx="2"
     fill="#023a88"
     id="rect14" />
  <rect
     x="349"
     y="78"
     width="18"
     height="2.5"
     rx="1"
     fill="#ffffff"
     opacity="0.35"
     id="rect15" />
  <rect
     x="349"
     y="85"
     width="13"
     height="2.5"
     rx="1"
     fill="#ffffff"
     opacity="0.35"
     id="rect16" />
  <rect
     x="375"
     y="68"
     width="28"
     height="89"
     rx="3"
     fill="#1a6fc4"
     id="rect17" />
  <rect
     x="375"
     y="68"
     width="5"
     height="89"
     rx="2"
     fill="#155898"
     id="rect18" />
  <rect
     x="379"
     y="84"
     width="19"
     height="2.5"
     rx="1"
     fill="#ffffff"
     opacity="0.35"
     id="rect19" />
  <rect
     x="379"
     y="91"
     width="14"
     height="2.5"
     rx="1"
     fill="#ffffff"
     opacity="0.35"
     id="rect20" />
  <rect
     x="407"
     y="65"
     width="25"
     height="92"
     rx="3"
     fill="#027a8e"
     id="rect21" />
  <rect
     x="407"
     y="65"
     width="5"
     height="92"
     rx="2"
     fill="#016070"
     id="rect22" />
  <rect
     x="411"
     y="81"
     width="16"
     height="2.5"
     rx="1"
     fill="#ffffff"
     opacity="0.35"
     id="rect23" />
  <rect
     x="411"
     y="88"
     width="11"
     height="2.5"
     rx="1"
     fill="#ffffff"
     opacity="0.35"
     id="rect24" />
  <rect
     x="308"
     y="156"
     width="184"
     height="4"
     rx="2"
     fill="#0196b1"
     opacity="0.45"
     id="rect25" />
  <!-- === APP NAAM === -->
  <text
     x="400"
     y="269"
     text-anchor="middle"
     font-family="'Segoe UI', Arial, sans-serif"
     font-size="28px"
     font-weight="700"
     letter-spacing="3"
     fill="#ffffff"
     opacity="0.96"
     id="text27">E-BOOK LIBRARY MANAGER</text>
  <!-- Scheidingslijn -->
  <line
     x1="270"
     y1="281"
     x2="530"
     y2="281"
     stroke="#0196b1"
     stroke-width="1.5"
     opacity="0.55"
     id="line27" />
  <!-- Versie -->
  <text
     x="400"
     y="303"
     text-anchor="middle"
     font-family="Arial, sans-serif"
     font-size="13px"
     fill="#ffffff"
     opacity="0.4"
     id="text28">v1.0.0</text>
  <!-- Laad-indicator -->
  <rect
     x="310"
     y="323"
     width="180"
     height="3"
     rx="2"
     fill="#ffffff"
     opacity="0.1"
     id="rect28" />
  <rect
     x="310"
     y="323"
     width="108"
     height="3"
     rx="2"
     fill="#0196b1"
     opacity="0.65"
     id="rect29" />
  <!-- === HN SOFTWARE LOGO AREA === -->
  <line
     x1="40"
     y1="445"
     x2="760"
     y2="445"
     stroke="#ffffff"
     stroke-width="0.5"
     opacity="0.1"
     id="line29" />
  <!-- HN logo vectorpaden (geschaald naar ~55px hoog, linksonder) -->
  <!-- Linkse beugel -->
  <!-- "HN SOFTWARE DEVELOPMENT" label -->
  <!-- Copyright rechts -->
  <text
     x="760"
     y="471"
     text-anchor="end"
     font-family="Arial, sans-serif"
     font-size="11px"
     fill="#ffffff"
     opacity="0.3"
     id="text38">© 2026 HN Software Development</text>
  <g
     transform="matrix(0.13314598,0,0,0.07386056,305.50637,155.39487)"
     id="g36">
    <path
       transform="translate(261,21)"
       d="m 0,0 h 45 l 21,1 42,6 29,6 36,9 38,13 28,11 28,13 17,8 19,10 24,13 14,9 22,14 17,12 21,16 17,13 11,9 10,8 5,-3 10,-10 13,-10 18,-14 18,-13 24,-16 21,-13 13,-8 12,-6 19,-10 15,-8 34,-15 26,-10 35,-12 26,-7 32,-7 38,-6 29,-3 h 54 l 26,2 3,4 12,36 33,98 23,70 12,36 12,37 13,38 13,40 13,38 16,50 12,36 24,73 16,47 14,43 5,15 v 6 l -5,-1 -16,-5 -30,-8 -39,-9 -35,-7 -32,-5 -48,-6 -56,-4 h -56 l -45,3 -34,4 -35,6 -22,5 -24,6 -36,12 -19,7 -23,10 -16,8 -22,12 -18,11 -19,13 -13,10 -9,7 -20,18 -15,15 -1,-3 8,-14 14,-19 9,-11 11,-13 7,-8 15,-15 8,-7 17,-14 13,-10 14,-10 15,-10 14,-9 25,-14 28,-13 21,-8 17,-6 21,-7 36,-9 49,-9 25,-3 48,-3 h 46 l 42,3 35,4 39,6 20,4 -3,-10 -11,-33 -8,-26 -12,-36 -17,-53 -5,-14 -4,-15 -12,-36 -13,-42 -12,-37 -5,-17 -12,-36 -11,-34 -14,-45 -8,-25 -16,-49 -5,-17 -2,-3 -21,1 -35,3 -38,5 -36,7 -28,7 -31,9 -21,7 -32,13 -26,12 -23,12 -24,15 -12,9 -13,10 h -2 v 2 l -11,9 -7,7 -8,7 -12,12 -8,11 -5,54 -5,72 -5,62 -7,94 -4,48 -3,46 -5,59 -4,55 -1,8 -2,-1 -2,-13 -4,-54 -2,-36 -3,-32 -4,-53 -3,-40 -3,-47 -2,-16 -5,-67 -5,-68 -3,-33 -2,-36 -8,-11 -11,-11 v -2 h -2 v -2 h -2 v -2 h -2 v -2 l -4,-2 -14,-13 -9,-7 -12,-9 L 322,134 298,119 271,105 252,96 221,84 184,72 150,63 111,55 66,49 40,47 25,46 H 10 l -18,56 -13,41 -11,35 -12,36 -11,35 -24,75 -24,74 -13,42 -13,40 -11,35 -17,51 -2,7 38,-7 36,-5 36,-3 34,-2 h 47 l 37,3 42,5 31,6 32,8 35,11 27,11 20,9 24,12 24,14 19,12 12,9 11,9 9,7 10,9 8,7 7,7 8,7 11,12 20,25 13,19 4,6 1,6 -3,-1 -4,-5 v -2 l -4,-2 -12,-12 -22,-18 -11,-8 -17,-12 -15,-9 -21,-12 -17,-9 -30,-13 -35,-13 -27,-8 -36,-8 -14,-3 -26,-4 -25,-3 -53,-4 H 13 l -46,3 -29,3 -26,3 -38,6 -36,7 -42,10 -33,9 -10,3 h -4 l 1,-5 14,-41 14,-44 13,-38 7,-22 12,-36 12,-37 48,-144 26,-80 11,-31 16,-50 12,-35 13,-40 18,-54 3,-8 2,-1 z"
       fill="#0196b1"
       id="path23" />
    <path
       transform="translate(1073,686)"
       d="m 0,0 h 19 l 46,2 48,4 45,6 49,9 31,7 36,9 37,11 1,3 -12,-1 -39,-7 -39,-5 -61,-5 -15,-1 -37,-1 H 93 l -43,1 -53,4 -35,5 -38,7 -44,11 -29,9 -34,13 -20,9 -20,10 -27,16 -19,14 -5,5 -4,5 -4,18 -4,8 -5,6 -9,4 -9,1 h -135 l -8,-3 -8,-6 -5,-10 -2,-14 -7,-11 -9,-8 -15,-10 -15,-9 -27,-14 -28,-13 -30,-11 -29,-9 -44,-11 -32,-6 -27,-4 -38,-4 -28,-2 h -90 l -72,5 -43,5 -45,7 -4,1 h -9 l 1,-2 26,-8 38,-10 37,-8 41,-8 33,-5 35,-4 33,-3 19,-1 h 75 l 41,3 33,4 28,5 36,8 36,11 27,10 24,11 16,8 19,10 19,12 15,10 16,12 11,9 20,18 6,5 4,-2 13,-12 11,-10 14,-11 11,-8 16,-11 21,-13 33,-17 25,-11 24,-9 32,-10 38,-9 34,-6 31,-4 21,-2 z"
       fill="#034bac"
       id="path24" />
    <path
       transform="translate(1188,403)"
       d="m 0,0 h 39 l 2,4 v 4 l -2,1 -59,1 -23,1 -32,3 -20,3 -17,2 -31,6 -14,3 -32,8 -43,14 -35,15 -25,11 -25,15 -11,6 -25,17 -13,11 -11,9 -13,12 -16,16 h -2 l -2,4 -4,1 -2,-4 6,-8 23,-23 13,-11 10,-8 14,-10 19,-13 11,-6 9,-6 12,-6 19,-10 20,-9 25,-10 36,-12 31,-9 37,-8 29,-5 38,-5 18,-2 15,-1 z"
       fill="#0196b1"
       id="path25" />
    <path
       transform="translate(174,403)"
       d="m 0,0 h 37 l 47,2 46,6 27,4 30,6 29,7 32,9 23,8 25,10 19,9 16,8 26,14 22,14 16,12 10,7 10,9 10,8 25,25 3,4 v 5 l -5,-1 -15,-15 v -2 l -4,-2 -9,-9 L 398,120 383,109 359,93 332,78 317,70 290,58 266,49 237,39 211,32 172,23 151,19 123,15 79,11 56,10 4,9 -3,8 -2,1 Z"
       fill="#0196b1"
       id="path26" />
    <path
       transform="translate(199,336)"
       d="m 0,0 h 61 l 33,2 39,5 19,3 41,9 27,7 36,12 30,12 23,11 14,8 14,7 16,10 9,6 10,7 14,11 12,9 v 2 l 4,2 8,8 5,4 7,8 5,6 1,6 -7,-1 -14,-15 -10,-10 -8,-7 L 374,110 360,100 335,84 319,75 303,67 282,57 255,46 228,37 183,25 148,18 119,14 83,10 53,8 2,7 -2,4 V 1 Z"
       fill="#0196b1"
       id="path27" />
    <path
       transform="translate(1134,336)"
       d="m 0,0 h 67 l 1,5 -3,2 -53,1 -18,1 -18,2 -31,3 -28,4 -42,9 -24,6 -36,12 -28,11 -20,9 -25,13 -14,8 -18,12 -17,12 -14,11 -17,16 -17,17 -6,1 1,-6 9,-10 7,-8 7,-6 5,-5 13,-10 12,-9 14,-10 17,-11 21,-12 21,-11 8,-4 10,-4 16,-7 20,-7 25,-8 25,-7 31,-7 25,-5 19,-3 37,-4 z"
       fill="#0196b1"
       id="path28" />
    <path
       transform="translate(1122,266)"
       d="m 0,0 h 58 l 3,3 v 3 l -2,1 -40,1 -49,3 -39,5 -25,4 -34,7 -28,8 -45,16 -16,7 -29,14 -19,11 -16,10 -13,10 -10,8 -13,11 -10,9 h -2 l -2,4 -12,12 -6,1 -1,-4 5,-6 6,-5 6,-7 5,-5 11,-10 17,-13 11,-8 18,-12 18,-10 24,-13 14,-6 13,-6 24,-9 24,-8 37,-10 31,-6 16,-3 43,-5 z"
       fill="#0196b1"
       id="path29-4" />
    <path
       transform="translate(220,266)"
       d="m 0,0 h 60 l 26,2 47,6 32,6 36,9 35,11 33,13 29,14 21,11 19,12 17,12 18,14 8,6 4,5 5,5 8,7 7,8 2,2 -1,5 -4,-1 -8,-7 -13,-13 -8,-7 -12,-10 -11,-8 L 335,91 316,79 302,71 279,60 252,48 208,33 180,26 138,17 107,13 77,10 47,8 0,7 -2,4 Z"
       fill="#0196b1"
       id="path30-7" />
    <path
       transform="translate(1119,196)"
       d="m 0,0 h 33 l 5,1 1,4 -2,4 -44,1 -48,3 -35,4 -39,8 -39,11 -22,7 -38,16 -20,10 -20,11 -12,8 -32,24 -17,17 -6,5 -6,6 h -5 l 1,-6 21,-21 8,-7 11,-9 19,-14 16,-10 17,-10 17,-9 18,-8 11,-5 16,-6 29,-10 31,-8 31,-6 15,-3 28,-4 35,-3 z"
       fill="#0196b1"
       id="path31-5" />
    <path
       transform="translate(243,197)"
       d="m 0,0 h 53 l 26,2 37,4 24,4 37,8 28,8 35,12 26,12 25,12 14,8 19,12 17,12 13,11 2,1 v 2 l 4,2 20,20 4,6 -1,4 -5,-1 -10,-10 -5,-6 -3,-2 v -2 l -4,-2 -10,-9 L 332,98 320,89 308,81 291,71 260,55 231,43 206,35 171,25 148,20 117,15 83,11 50,9 0,8 Z"
       fill="#0196b1"
       id="path32-6" />
    <path
       transform="translate(1094,127)"
       d="m 0,0 h 39 l 3,2 v 6 l -57,2 -27,2 -32,4 -24,4 -29,6 -33,10 -30,11 -30,14 -21,11 -17,11 -10,7 -12,9 -10,9 -11,9 -2,3 h -2 v 2 l -5,5 -6,5 -5,-1 -1,-3 7,-8 24,-22 h 2 l 1,-3 17,-12 15,-10 13,-8 17,-10 21,-10 27,-11 23,-8 25,-7 30,-7 17,-3 24,-4 37,-4 z"
       fill="#0196b1"
       id="path33-6" />
    <path
       transform="translate(267,126)"
       d="m 0,0 40,1 35,2 37,5 32,6 30,7 32,10 21,8 17,7 15,8 14,7 27,16 16,12 11,8 11,10 8,7 11,11 3,4 -1,4 -3,1 -6,-5 -7,-8 L 328,107 318,99 299,85 286,77 269,67 245,55 213,42 186,33 150,24 119,18 88,14 54,11 -3,9 -2,2 Z"
       fill="#0196b1"
       id="path34-8" />
    <path
       transform="translate(175,715)"
       d="m 0,0 h 89 l 32,2 39,4 8,1 V 8 H 158 L 130,5 102,3 H 12 l -72,5 -37,4 h -6 l 4,-2 31,-4 20,-2 23,-2 z"
       fill="#0196b1"
       id="path35-4" />
    <path
       transform="translate(1144,715)"
       d="m 0,0 h 67 l 24,1 50,4 38,5 17,3 v 1 L 183,13 151,9 90,4 75,3 38,2 H 22 L -21,3 -35,4 H -49 V 3 l 25,-2 z"
       fill="#0196b1"
       id="path36-5" />
  </g>
  <path
     d="m 21.585775,433.14477 c -1.040612,0.12507 -2.324034,0.37521 -2.809653,0.56283 -1.526231,0.53156 -3.503395,2.31384 -4.266511,3.81473 -0.693742,1.31326 -0.728428,2.03243 -0.83249,11.88193 -0.03469,5.75338 -0.173436,10.78757 -0.242809,11.19405 -0.346871,1.3758 -1.387484,1.93863 -3.6421442,1.93863 H 7.710943 v 2.03244 2.03243 h 2.0812248 c 2.2546602,0 3.2952732,0.56283 3.6421442,1.93864 0.06937,0.40649 0.208123,5.44068 0.242809,11.19404 0.138748,11.9132 0.116885,12.22 2.857165,14.3775 1.734354,1.40707 3.178387,1.75693 7.06334,2.06961 l 2.844341,0.21888 v -1.8761 -1.8761 l -2.081225,-0.1876 c -2.49747,-0.25014 -3.815579,-0.81299 -4.717443,-2.00117 -0.624368,-0.81298 -0.659055,-1.75103 -0.83249,-11.81941 -0.173435,-10.16218 -0.208122,-11.00643 -0.867177,-11.97575 -0.346871,-0.53156 -0.775683,-0.90429 -0.87346,-0.9666 -0.08497,-0.0542 -0.498445,-0.35504 -0.949376,-0.66773 l -0.882757,-0.55445 1.0753,-0.50029 c 2.25466,-1.03186 2.289348,-1.34453 2.49747,-13.47662 0.173435,-10.06839 0.208122,-11.00643 0.83249,-11.81941 0.901864,-1.18819 2.219973,-1.75102 4.717443,-2.00117 l 2.081225,-0.18761 v -1.81356 -1.84483 l -1.456857,0.0313 c -0.832491,0.0313 -2.358722,0.15634 -3.399335,0.28141 z"
     id="path906"
     style="fill:#0196b1;fill-opacity:1;stroke:none;stroke-width:0.0329333" />
  <path
     d="m 75.862489,446.65574 c 0,8.88667 0.04423,12.51306 0.08839,8.0498 0.08849,-4.4234 0.08849,-11.67618 0,-16.13945 -0.04423,-4.42341 -0.08839,-0.79701 -0.08839,8.08965 z"
     id="path910"
     style="fill:#034bac;fill-opacity:1;stroke:none;stroke-width:0.0326739;stroke-dasharray:none" />
  <path
     d="m 34.073125,436.95024 c 0.763115,0.30025 1.491544,0.9608 1.907789,1.71141 0.624367,1.11093 0.693742,1.9216 0.797803,9.5179 l 0.138748,8.34693 h 1.699667 1.699666 v -1.05088 c 0,-1.44119 0.797803,-3.03251 1.734355,-3.45285 1.0753,-0.51044 2.393408,-0.21018 6.41711,1.41116 2.913714,1.20099 3.850266,1.4412 5.896804,1.53127 1.977165,0.0601 2.636218,-0.03 3.538084,-0.51042 1.214047,-0.66054 1.97716,-1.5613 2.324033,-2.73227 l 0.242812,-0.75063 -0.485625,0.72061 c -1.248733,1.80149 -3.399332,1.9216 -8.255521,0.4804 -5.758057,-1.71143 -7.978029,-1.6814 -10.406126,0.0901 l -1.075299,0.78064 0.138748,-6.60547 c 0.13875,-7.47621 0.416245,-8.52707 2.705592,-9.48787 1.214049,-0.54046 1.179362,-0.54046 -4.50932,-0.54046 -5.688682,0 -5.723368,0 -4.50932,0.54046 z"
     id="path912"
     style="fill:#034bac;fill-opacity:1;stroke:none;stroke-width:0.0322721" />
  <path
     d="m 59.047824,436.95024 c 0.763119,0.30025 1.49154,0.9608 1.907792,1.71141 0.624366,1.0809 0.69374,1.95162 0.7978,9.5179 l 0.138747,8.34693 h 1.664979 1.664979 l 0.138752,-8.34693 c 0.104061,-7.5963 0.173434,-8.40697 0.797801,-9.5179 0.416246,-0.75061 1.144673,-1.41116 1.907791,-1.71141 1.214047,-0.54046 1.17936,-0.54046 -4.509323,-0.54046 -5.688678,0 -5.723369,0 -4.509318,0.54046 z"
     id="path914"
     style="fill:#034bac;fill-opacity:1;stroke:none;stroke-width:0.0322721" />
  <path
     d="m 84.612203,451.86905 c 1.214046,0.53156 1.526227,0.81297 1.873099,1.9699 0.867174,2.90795 0.936553,3.00175 0.971244,1.18819 l 0.0347,-1.71975 1.214057,1.65721 1.248733,1.62595 h 2.219967 2.254665 l -0.901861,-1.34453 c -0.520311,-0.71917 -1.387485,-1.90737 -1.942478,-2.6578 l -1.005921,-1.31327 H 86.86688 83.155362 Z"
     id="path916"
     style="fill:#034bac;fill-opacity:1;stroke:none;stroke-width:0.0329333" />
  <path
     d="m 108.26878,451.68143 c 1.52625,0.43776 3.26059,2.00118 4.05839,3.65839 0.555,1.12566 0.76312,1.282 1.69967,1.1882 0.93655,-0.0938 1.04062,-0.21888 1.24873,-1.53214 0.31219,-1.87611 0.90188,-2.65781 2.39342,-3.22064 1.14467,-0.43775 0.7978,-0.46902 -4.68276,-0.43775 -4.75212,0 -5.65399,0.0625 -4.71745,0.34394 z"
     id="path918"
     style="fill:#034bac;fill-opacity:1;stroke:none;stroke-width:0.0329333" />
  <path
     d="m 36.050287,473.84293 c -0.485618,1.25073 -0.832489,1.62595 -1.907788,2.00117 -1.248736,0.46903 -1.0753,0.50029 4.439946,0.50029 5.515246,0 5.688682,-0.0313 4.439947,-0.50029 -1.075301,-0.37522 -1.422171,-0.75044 -1.907791,-2.00117 l -0.624367,-1.53215 h -1.907789 -1.907789 z"
     id="path920"
     style="fill:#034bac;fill-opacity:1;stroke:none;stroke-width:0.0329333" />
  <path
     d="m 87.109674,479.83209 c -0.138747,8.42741 -0.208126,9.44571 -0.832497,10.70981 -0.48562,1.01831 -1.040608,1.50992 -1.907787,1.82594 -1.040612,0.35115 -0.346862,0.42137 4.682752,0.42137 5.376502,0 5.792743,-0.0351 4.578697,-0.45648 -1.803721,-0.66717 -2.566845,-1.43968 -3.711513,-3.72209 -1.38748,-2.80914 -2.150594,-6.81215 -2.393411,-12.78155 -0.242802,-5.23201 -0.242802,-5.1969 -0.416241,4.003 z"
     id="path924"
     style="fill:#034bac;fill-opacity:1;stroke:none;stroke-width:0.0326739;stroke-dasharray:none" />
  <path
     d="m 106.98537,482.30299 c 3.98901,5.56576 7.42303,10.22473 7.59647,10.38107 0.17344,0.18761 0.27749,-4.00234 0.2428,-10.16219 -0.0693,-10.41233 -0.0693,-10.41233 -0.27749,-3.3457 l -0.17344,7.09789 -5.02963,-7.00409 -5.02962,-7.00409 -2.32403,-0.0313 h -2.324041 z"
     id="path926"
     style="fill:#034bac;fill-opacity:1;stroke:none;stroke-width:0.0329333" />
  <path
     d="m 75.863851,482.54111 c 0,8.97236 0.04463,12.63373 0.08909,8.12743 0.08937,-4.46606 0.08937,-11.78879 0,-16.2951 -0.04463,-4.46606 -0.08909,-0.80468 -0.08909,8.16767 z"
     id="path959"
     style="fill:#034bac;fill-opacity:1;stroke:none;stroke-width:0.0326739;stroke-dasharray:none" />
  <g
     aria-label="SOFTWARE"
     id="text1015"
     style="font-size:15.8567px;font-family:Orbitron;-inkscape-font-specification:'Orbitron, Normal';fill:#37b5fd;stroke:#37b5fd;stroke-width:0.0524396;paint-order:markers fill stroke"
     transform="matrix(0.98325575,0,0,0.8863446,-25.886247,332.89413)">
    <g
       id="path7025">
      <path
         style="color:#000000;-inkscape-font-specification:'Orbitron, Normal';stroke:none;-inkscape-stroke:none"
         d="m 62.128241,145.45169 h -1.712524 v -0.66598 q 0,-0.14271 -0.110997,-0.23785 -0.09514,-0.111 -0.23785,-0.111 h -7.294082 q -0.14271,0 -0.253707,0.111 -0.09514,0.0951 -0.09514,0.23785 v 2.44193 q 0,0.14271 0.09514,0.25371 0.110997,0.0951 0.253707,0.0951 h 7.294082 q 0.428131,0 0.792835,0.15856 0.380561,0.15857 0.665981,0.44399 0.285421,0.28542 0.443988,0.66598 0.158567,0.36471 0.158567,0.79284 v 2.44193 q 0,0.42813 -0.158567,0.80869 -0.158567,0.3647 -0.443988,0.65012 -0.28542,0.28543 -0.665981,0.44399 -0.364704,0.15857 -0.792835,0.15857 h -7.294082 q -0.428131,0 -0.808692,-0.15857 -0.364704,-0.15856 -0.650124,-0.44399 -0.285421,-0.28542 -0.443988,-0.65012 -0.158567,-0.38056 -0.158567,-0.80869 v -0.66598 h 1.712524 v 0.66598 q 0,0.14271 0.09514,0.25371 0.110997,0.0951 0.253707,0.0951 h 7.294082 q 0.14271,0 0.23785,-0.0951 0.110997,-0.111 0.110997,-0.25371 v -2.44193 q 0,-0.14271 -0.110997,-0.23785 -0.09514,-0.111 -0.23785,-0.111 h -7.294082 q -0.428131,0 -0.808692,-0.15857 -0.364704,-0.15857 -0.650124,-0.44399 -0.285421,-0.28542 -0.443988,-0.65012 -0.158567,-0.38056 -0.158567,-0.80869 v -2.44193 q 0,-0.42813 0.158567,-0.79284 0.158567,-0.38056 0.443988,-0.66598 0.28542,-0.28542 0.650124,-0.44399 0.380561,-0.15856 0.808692,-0.15856 h 7.294082 q 0.428131,0 0.792835,0.15856 0.380561,0.15857 0.665981,0.44399 0.285421,0.28542 0.443988,0.66598 0.158567,0.36471 0.158567,0.79284 z"
         id="path7044" />
      <path
         style="color:#000000;-inkscape-font-specification:'Orbitron, Normal';stroke:none;-inkscape-stroke:none"
         d="m 52.773437,142.69727 c -0.288657,0 -0.563383,0.0551 -0.820312,0.1621 -0.246117,0.10701 -0.465692,0.25671 -0.658203,0.44922 -0.192684,0.19269 -0.342255,0.41712 -0.449219,0.67383 -0.107207,0.24658 -0.160156,0.51408 -0.160156,0.80274 v 2.44336 c 0,0.28865 0.0531,0.56143 0.160156,0.81835 0.107008,0.24612 0.256707,0.4657 0.449219,0.65821 0.192511,0.19251 0.412086,0.34221 0.658203,0.44922 0.256929,0.10705 0.531655,0.16015 0.820312,0.16015 h 7.292969 c 0.08834,0 0.159539,0.0344 0.21875,0.10352 l 0.002,0.002 c 0.06908,0.0592 0.101563,0.13041 0.101563,0.21875 v 2.44141 c 0,0.0883 -0.03154,0.16435 -0.101563,0.23437 -0.05879,0.0588 -0.131387,0.0879 -0.220703,0.0879 h -7.292969 c -0.08843,0 -0.165134,-0.0274 -0.234375,-0.0859 l -0.002,-0.002 c -0.05861,-0.0692 -0.08789,-0.14595 -0.08789,-0.23437 v -0.69336 h -1.763672 v 0.69336 c 0,0.28865 0.0531,0.56143 0.160156,0.81836 0.107008,0.24611 0.256707,0.46569 0.449219,0.6582 0.192511,0.19252 0.412085,0.34222 0.658203,0.44922 0.256929,0.10706 0.531655,0.16211 0.820312,0.16211 h 7.292969 c 0.287984,0 0.556634,-0.0554 0.802735,-0.16211 0.256714,-0.10696 0.483098,-0.25653 0.675781,-0.44922 0.192512,-0.19251 0.342211,-0.41209 0.449219,-0.6582 0.107053,-0.25693 0.160156,-0.52971 0.160156,-0.81836 v -2.44141 c 0,-0.28865 -0.05295,-0.55811 -0.160156,-0.80469 -0.106965,-0.25671 -0.256535,-0.48114 -0.449219,-0.67382 -0.192297,-0.1923 -0.417755,-0.3423 -0.673828,-0.44922 h -0.002 c -0.246101,-0.1067 -0.514751,-0.16016 -0.802735,-0.16016 H 52.77339 c -0.08931,0 -0.166546,-0.0301 -0.236328,-0.0898 -0.05775,-0.0688 -0.08789,-0.14465 -0.08789,-0.23242 v -2.44336 c 0,-0.0893 0.0291,-0.15999 0.08789,-0.21875 0.07003,-0.07 0.147987,-0.10352 0.236328,-0.10352 h 7.292969 c 0.08834,0 0.159539,0.0325 0.21875,0.10156 v 0.002 l 0.002,0.002 c 0.06908,0.0592 0.101563,0.12845 0.101563,0.2168 v 0.69336 h 1.765625 v -0.0274 -0.66601 c 0,-0.28866 -0.05295,-0.55616 -0.160156,-0.80274 -0.106965,-0.25671 -0.256535,-0.48114 -0.449219,-0.67383 -0.192297,-0.19229 -0.417755,-0.34229 -0.673828,-0.44922 h -0.002 c -0.246101,-0.1067 -0.514751,-0.1621 -0.802735,-0.1621 z m 0,0.0527 h 7.292969 c 0.282184,0 0.543508,0.052 0.783203,0.15625 0.2507,0.10446 0.470327,0.25158 0.658203,0.43945 0.187878,0.18788 0.333042,0.40555 0.4375,0.65625 v 0.002 c 0.104216,0.2397 0.15625,0.49906 0.15625,0.78125 v 0.64062 h -1.660156 v -0.64062 c 0,-0.10037 -0.04062,-0.18669 -0.117187,-0.25391 -0.06764,-0.0789 -0.155875,-0.12109 -0.257813,-0.12109 h -7.292969 c -0.101937,0 -0.195466,0.0412 -0.273437,0.11914 -0.06807,0.068 -0.101562,0.15486 -0.101563,0.25586 v 2.44336 c 0,0.10096 0.03452,0.19131 0.101563,0.26953 v 0.002 l 0.002,0.002 c 0.07821,0.067 0.17052,0.10157 0.271484,0.10157 h 7.292969 c 0.282184,0 0.543508,0.052 0.783203,0.15625 0.2507,0.10446 0.470327,0.24962 0.658203,0.4375 0.187878,0.18787 0.333042,0.4075 0.4375,0.6582 0.104216,0.2397 0.15625,0.50102 0.15625,0.7832 v 2.44141 c 10e-7,0.28218 -0.05188,0.54834 -0.15625,0.79883 -0.104414,0.24015 -0.249451,0.45257 -0.4375,0.64062 -0.187876,0.18788 -0.407503,0.335 -0.658203,0.43945 -0.239695,0.10422 -0.501019,0.15625 -0.783203,0.15625 h -7.292969 c -0.282183,0 -0.548343,-0.0519 -0.798828,-0.15625 -0.240153,-0.10441 -0.45453,-0.25139 -0.642578,-0.43945 -0.188049,-0.18805 -0.333085,-0.40047 -0.4375,-0.64062 -0.104368,-0.25049 -0.15625,-0.51665 -0.15625,-0.79883 v -0.64063 h 1.660156 v 0.64063 c 10e-7,0.10096 0.03452,0.19131 0.101563,0.26953 v 0.002 l 0.002,0.002 c 0.07821,0.067 0.17052,0.10156 0.271484,0.10156 H 60.0665 c 0.100964,0 0.18975,-0.0355 0.257813,-0.10352 0.07797,-0.078 0.117187,-0.16954 0.117187,-0.27148 v -2.44141 c 0,-0.10101 -0.03967,-0.18846 -0.117187,-0.25586 -0.06764,-0.0789 -0.155875,-0.11914 -0.257813,-0.11914 h -7.292969 c -0.282183,0 -0.548343,-0.0538 -0.798828,-0.1582 -0.240154,-0.10442 -0.45453,-0.24945 -0.642578,-0.4375 -0.188049,-0.18805 -0.333085,-0.40243 -0.4375,-0.64258 -0.104368,-0.25048 -0.15625,-0.51469 -0.15625,-0.79687 v -2.44336 c 0,-0.28219 0.05203,-0.54155 0.15625,-0.78125 v -0.002 c 0.104458,-0.2507 0.249623,-0.46837 0.4375,-0.65625 0.188048,-0.18805 0.402424,-0.33503 0.642578,-0.43945 0.250485,-0.10436 0.516645,-0.15625 0.798828,-0.15625 z"
         id="path7046" />
    </g>
    <g
       id="path7027">
      <path
         style="color:#000000;-inkscape-font-specification:'Orbitron, Normal';stroke:none;-inkscape-stroke:none"
         d="m 73.148655,142.72434 q 0.428131,0 0.792835,0.15856 0.380561,0.15857 0.665981,0.44399 0.285421,0.28542 0.443988,0.66598 0.158567,0.36471 0.158567,0.79284 v 7.29408 q 0,0.42813 -0.158567,0.80869 -0.158567,0.3647 -0.443988,0.65012 -0.28542,0.28543 -0.665981,0.44399 -0.364704,0.15857 -0.792835,0.15857 h -7.294082 q -0.428131,0 -0.808692,-0.15857 -0.364704,-0.15856 -0.650124,-0.44399 -0.285421,-0.28542 -0.443988,-0.65012 -0.158567,-0.38056 -0.158567,-0.80869 v -7.29408 q 0,-0.42813 0.158567,-0.79284 0.158567,-0.38056 0.443988,-0.66598 0.28542,-0.28542 0.650124,-0.44399 0.380561,-0.15856 0.808692,-0.15856 z m 0,9.7043 q 0.14271,0 0.23785,-0.0951 0.110997,-0.111 0.110997,-0.25371 v -7.29408 q 0,-0.14271 -0.110997,-0.23785 -0.09514,-0.111 -0.23785,-0.111 h -7.294082 q -0.14271,0 -0.253707,0.111 -0.09514,0.0951 -0.09514,0.23785 v 7.29408 q 0,0.14271 0.09514,0.25371 0.110997,0.0951 0.253707,0.0951 z"
         id="path7050" />
      <path
         style="color:#000000;-inkscape-font-specification:'Orbitron, Normal';stroke:none;-inkscape-stroke:none"
         d="m 65.855469,142.69727 c -0.288657,0 -0.563383,0.0551 -0.820313,0.1621 -0.246117,0.10701 -0.465691,0.25671 -0.658203,0.44922 -0.192684,0.19269 -0.342254,0.41712 -0.449219,0.67383 -0.107207,0.24658 -0.160156,0.51408 -0.160156,0.80274 v 7.29492 c 0,0.28865 0.0531,0.56143 0.160156,0.81836 0.107008,0.24611 0.256707,0.46569 0.449219,0.6582 0.192512,0.19252 0.412085,0.34222 0.658203,0.44922 0.25693,0.10706 0.531655,0.16211 0.820313,0.16211 h 7.292968 c 0.288658,0 0.556159,-0.0549 0.802735,-0.16211 0.256715,-0.10696 0.483098,-0.25653 0.675781,-0.44922 0.192512,-0.19251 0.342211,-0.41209 0.449219,-0.6582 0.107054,-0.25693 0.160156,-0.52971 0.160156,-0.81836 v -7.29492 c 0,-0.28866 -0.05295,-0.55616 -0.160156,-0.80274 -0.106964,-0.25671 -0.256535,-0.48114 -0.449219,-0.67383 -0.192683,-0.19268 -0.419067,-0.34225 -0.675781,-0.44922 -0.246576,-0.1072 -0.514077,-0.1621 -0.802735,-0.1621 z m 0,0.0527 h 7.292968 c 0.282184,0 0.543508,0.052 0.783204,0.15625 0.250699,0.10446 0.470326,0.25158 0.658203,0.43945 0.187877,0.18788 0.333042,0.40751 0.4375,0.65821 0.104215,0.2397 0.15625,0.49906 0.15625,0.78125 v 7.29492 c 0,0.28218 -0.05188,0.54834 -0.15625,0.79883 -0.104415,0.24015 -0.249451,0.45257 -0.4375,0.64062 -0.187877,0.18788 -0.407504,0.335 -0.658203,0.43945 -0.239696,0.10422 -0.50102,0.15625 -0.783204,0.15625 h -7.292968 c -0.282184,0 -0.548344,-0.0519 -0.798828,-0.15625 -0.240154,-0.10441 -0.45453,-0.25139 -0.642579,-0.43945 -0.188048,-0.18805 -0.333085,-0.40047 -0.4375,-0.64062 -0.104368,-0.25049 -0.15625,-0.51665 -0.15625,-0.79883 v -7.29492 c 0,-0.28219 0.05203,-0.54155 0.15625,-0.78125 0.104459,-0.2507 0.249623,-0.47033 0.4375,-0.65821 0.188049,-0.18805 0.402425,-0.33503 0.642579,-0.43945 0.250485,-0.10436 0.516644,-0.15625 0.798828,-0.15625 z m 0,1.66016 c -0.101938,0 -0.195467,0.0412 -0.273438,0.11914 -0.06807,0.068 -0.101562,0.15486 -0.101562,0.25586 v 7.29492 c 0,0.10096 0.03257,0.19327 0.09961,0.27148 h 0.002 l 0.002,0.002 c 0.07821,0.067 0.170521,0.10156 0.271485,0.10156 h 7.292968 c 0.100965,0 0.187797,-0.0355 0.25586,-0.10352 0.07797,-0.078 0.11914,-0.16954 0.11914,-0.27148 v -7.29492 c 0,-0.10037 -0.04063,-0.18669 -0.117187,-0.25391 -0.06764,-0.0789 -0.155875,-0.12109 -0.257813,-0.12109 z m 0,0.0527 h 7.292968 c 0.08834,0 0.15954,0.0325 0.21875,0.10156 v 0.002 l 0.002,0.002 c 0.06908,0.0592 0.101562,0.12845 0.101562,0.2168 v 7.29492 c 0,0.0883 -0.03349,0.16435 -0.103516,0.23437 -0.05879,0.0588 -0.129434,0.0879 -0.21875,0.0879 h -7.292968 c -0.08779,0 -0.165524,-0.0282 -0.234375,-0.0859 -0.05981,-0.0698 -0.08984,-0.14702 -0.08984,-0.23633 v -7.29492 c 0,-0.0893 0.0291,-0.15999 0.08789,-0.21875 0.07003,-0.07 0.147986,-0.10352 0.236328,-0.10352 z"
         id="path7052" />
    </g>
    <g
       id="path7029">
      <path
         style="color:#000000;-inkscape-font-specification:'Orbitron, Normal';stroke:none;-inkscape-stroke:none"
         d="m 87.451383,142.72434 v 1.71252 h -8.752898 v 3.13963 h 7.040375 v 1.71252 h -7.040375 v 4.85215 h -1.712524 v -11.41682 z"
         id="path7056" />
      <path
         style="color:#000000;-inkscape-font-specification:'Orbitron, Normal';stroke:none;-inkscape-stroke:none"
         d="m 76.958984,142.69727 v 11.4707 h 1.765625 v -4.85352 h 7.041016 v -1.76367 h -7.041016 v -3.08789 h 8.753907 v -1.76562 h -0.02734 z m 0.05273,0.0527 h 10.414062 v 1.66016 H 78.67187 v 3.19336 h 7.041016 v 1.66015 H 78.67187 v 4.85156 h -1.660156 z"
         id="path7058" />
    </g>
    <g
       id="path7031">
      <path
         style="color:#000000;-inkscape-font-specification:'Orbitron, Normal';stroke:none;-inkscape-stroke:none"
         d="m 99.898902,142.72434 v 1.71252 h -4.852151 v 9.7043 h -1.712523 v -9.7043 h -4.85215 v -1.71252 z"
         id="path7062" />
      <path
         style="color:#000000;-inkscape-font-specification:'Orbitron, Normal';stroke:none;-inkscape-stroke:none"
         d="m 88.455078,142.69727 v 1.76562 h 4.853516 v 9.70508 h 1.763672 v -9.70508 h 4.853515 v -1.76562 h -0.02734 z m 0.05273,0.0527 h 11.365235 v 1.66016 H 95.02148 v 9.70507 h -1.660156 v -9.70507 h -4.853516 z"
         id="path7064" />
    </g>
    <g
       id="path7033">
      <path
         style="color:#000000;-inkscape-font-specification:'Orbitron, Normal';stroke:none;-inkscape-stroke:none"
         d="m 118.34026,142.72434 -4.15446,11.41682 h -1.39539 l -3.25062,-8.89561 -3.23477,8.89561 -0.0317,-0.0159 0.0159,0.0159 h -1.37953 l -4.15445,-11.41682 h 1.82352 l 3.02863,8.32476 3.02863,-8.32476 h 1.82352 l 3.02863,8.32476 3.02863,-8.32476 z"
         id="path7068" />
      <path
         style="color:#000000;-inkscape-font-specification:'Orbitron, Normal';stroke:none;-inkscape-stroke:none"
         d="m 100.71875,142.69727 4.17188,11.4707 h 1.41015 l 0.0195,0.01 0.004,-0.01 h 0.0273 l -0.0195,-0.0195 3.20899,-8.82813 3.23046,8.84766 h 1.4336 l 4.17187,-11.4707 h -0.0371 -1.84179 l -3.00977,8.27343 -3.00976,-8.27343 h -1.86133 l -3.00977,8.27343 -3.00976,-8.27343 z m 0.0742,0.0527 h 1.76758 l 3.04687,8.375 3.04688,-8.375 h 1.78711 l 3.04687,8.375 3.04688,-8.375 h 1.76757 l -4.13476,11.36523 h -1.35938 l -3.26953,-8.94531 -3.24804,8.93555 -0.006,-0.004 -0.01,0.0137 h -1.34766 z"
         id="path7070" />
    </g>
    <g
       id="path7035">
      <path
         style="color:#000000;-inkscape-font-specification:'Orbitron, Normal';stroke:none;-inkscape-stroke:none"
         d="m 129.01182,142.72434 q 0.42813,0 0.79284,0.15856 0.38056,0.15857 0.66598,0.44399 0.28542,0.28542 0.44398,0.66598 0.15857,0.36471 0.15857,0.79284 v 9.35545 h -1.71252 v -3.99589 h -7.99178 v 3.99589 h -1.71252 v -9.35545 q 0,-0.42813 0.15856,-0.79284 0.15857,-0.38056 0.44399,-0.66598 0.28542,-0.28542 0.65013,-0.44399 0.38056,-0.15856 0.80869,-0.15856 z m 0.34885,5.70841 v -3.64704 q 0,-0.14271 -0.111,-0.23785 -0.0951,-0.111 -0.23785,-0.111 h -7.29408 q -0.14271,0 -0.25371,0.111 -0.0951,0.0951 -0.0951,0.23785 v 3.64704 z"
         id="path7074" />
      <path
         style="color:#000000;-inkscape-font-specification:'Orbitron, Normal';stroke:none;-inkscape-stroke:none"
         d="m 121.7168,142.69727 c -0.28866,0 -0.56143,0.0551 -0.81836,0.1621 -0.24612,0.10701 -0.46569,0.25671 -0.65821,0.44922 -0.19268,0.19269 -0.34225,0.41712 -0.44921,0.67383 -0.10721,0.24658 -0.16016,0.51408 -0.16016,0.80274 v 9.38281 h 1.76367 v -3.9961 h 7.93945 v 3.9961 h 1.76563 v -9.38281 c 0,-0.28866 -0.053,-0.55616 -0.16016,-0.80274 -0.10696,-0.25671 -0.25849,-0.48114 -0.45117,-0.67383 -0.19268,-0.19268 -0.41711,-0.34225 -0.67383,-0.44922 -0.24658,-0.1072 -0.51407,-0.1621 -0.80273,-0.1621 z m 0,0.0527 h 7.29492 c 0.28218,0 0.5435,0.052 0.7832,0.15625 0.2507,0.10446 0.46838,0.25158 0.65625,0.43945 0.18788,0.18788 0.335,0.40751 0.43945,0.65821 0.10422,0.2397 0.15625,0.49906 0.15625,0.78125 v 9.33007 h -1.66015 v -3.99609 h -8.04492 v 3.99609 h -1.66016 v -9.33007 c 0,-0.28219 0.054,-0.54155 0.1582,-0.78125 0.10446,-0.2507 0.24963,-0.47033 0.4375,-0.65821 0.18805,-0.18804 0.40242,-0.33503 0.64258,-0.43945 0.25049,-0.10436 0.51469,-0.15625 0.79688,-0.15625 z m 0,1.66016 c -0.10194,0 -0.19351,0.0412 -0.27149,0.11914 -0.068,0.068 -0.10351,0.15487 -0.10351,0.25586 v 3.67382 h 8.04492 v -0.0254 -3.64843 c 0,-0.10037 -0.0406,-0.18669 -0.11719,-0.25391 -0.0676,-0.0789 -0.15585,-0.12109 -0.25781,-0.12109 z m 0,0.0527 h 7.29492 c 0.0884,0 0.15957,0.0325 0.21875,0.10156 v 0.002 l 0.002,0.002 c 0.0691,0.0592 0.10156,0.12845 0.10156,0.2168 v 3.62109 h -7.93945 v -3.62109 c 0,-0.0893 0.0291,-0.15999 0.0879,-0.21875 0.07,-0.07 0.14603,-0.10352 0.23438,-0.10352 z"
         id="path7076" />
    </g>
    <g
       id="path7037">
      <path
         style="color:#000000;-inkscape-font-specification:'Orbitron, Normal';stroke:none;-inkscape-stroke:none"
         d="m 144.28183,148.00462 q 0,0.42813 -0.15857,0.80869 -0.15856,0.3647 -0.44398,0.65012 -0.28542,0.26957 -0.66598,0.44399 -0.36471,0.15857 -0.79284,0.15857 h -1.15754 l 3.21891,3.83732 v 0.23785 h -2.02966 l -3.42504,-4.07517 h -3.90075 q -0.0951,0 -0.19028,0 -0.0793,-0.0159 -0.15857,-0.0317 v 4.10689 h -1.71252 v -11.40097 h 9.35545 q 0.42813,0 0.79284,0.17443 0.38056,0.15856 0.66598,0.44398 0.28542,0.26957 0.44398,0.65013 0.15857,0.3647 0.15857,0.79283 z m -2.06137,0.34884 q 0.14271,0 0.23785,-0.0951 0.111,-0.11099 0.111,-0.2537 v -3.20306 q 0,-0.14271 -0.111,-0.23785 -0.0951,-0.11099 -0.23785,-0.11099 h -7.29408 q -0.14271,0 -0.25371,0.11099 -0.0951,0.0951 -0.0951,0.23785 v 3.20306 q 0,0.14271 0.0951,0.2537 0.111,0.0951 0.25371,0.0951 z"
         id="path7080" />
      <path
         style="color:#000000;-inkscape-font-specification:'Orbitron, Normal';stroke:none;-inkscape-stroke:none"
         d="m 132.83789,142.71484 v 11.45313 h 1.76563 v -4.10156 c 0.0424,0.008 0.0845,0.0169 0.12695,0.0254 h 0.004 0.19141 3.88867 l 3.42578,4.07617 h 2.06836 v -0.27344 l -3.18945,-3.80273 h 1.10156 c 0.28866,0 0.55616,-0.053 0.80274,-0.16016 0.2561,-0.11738 0.48137,-0.26745 0.67383,-0.44922 0.19251,-0.19251 0.34221,-0.41209 0.44921,-0.6582 h 0.002 c 0.10705,-0.25693 0.16015,-0.53166 0.16015,-0.82031 v -3.20313 c 0,-0.28866 -0.0549,-0.55616 -0.16211,-0.80273 h 0.002 c -0.10701,-0.25684 -0.25818,-0.47593 -0.45117,-0.65821 -0.1923,-0.19229 -0.41581,-0.3423 -0.67188,-0.44922 h -0.002 c -0.24627,-0.11746 -0.51443,-0.17578 -0.80274,-0.17578 z m 0.0527,0.0508 h 9.33008 c 0.28186,0 0.54172,0.0573 0.78125,0.17188 v 0.002 h 0.002 c 0.2507,0.10446 0.46837,0.24963 0.65625,0.4375 h 0.002 c 0.18756,0.17715 0.3331,0.392 0.4375,0.64258 0.10422,0.23969 0.15625,0.49907 0.15625,0.78125 v 3.20313 c 0,0.28218 -0.0519,0.54834 -0.15625,0.79882 -0.10441,0.24016 -0.25141,0.45453 -0.43945,0.64258 -0.18785,0.17717 -0.40741,0.32256 -0.65821,0.4375 -0.2397,0.10422 -0.49906,0.15625 -0.78125,0.15625 h -1.21484 l 3.25,3.87305 v 0.20312 h -1.99219 l -3.42383,-4.07617 h -3.91406 -0.18945 c -0.0509,-0.0102 -0.10342,-0.0211 -0.1543,-0.0312 l -0.0312,-0.006 v 4.11328 h -1.66016 z m 2.03516,1.66016 c -0.10194,0 -0.19351,0.0412 -0.27148,0.11914 -0.068,0.068 -0.10352,0.15487 -0.10352,0.25586 v 3.20313 c 0,0.10096 0.0345,0.19327 0.10156,0.27148 l 0.002,0.002 h 0.002 c 0.0782,0.067 0.16857,0.10157 0.26953,0.10157 h 7.29492 c 0.10097,0 0.1878,-0.0335 0.25586,-0.10157 0.078,-0.078 0.11914,-0.1715 0.11914,-0.27343 v -3.20313 c 0,-0.10101 -0.0416,-0.18846 -0.11914,-0.25586 -0.0674,-0.0775 -0.15482,-0.11914 -0.25586,-0.11914 z m 0,0.0527 h 7.29492 c 0.0884,0 0.15762,0.0325 0.2168,0.10156 l 0.002,0.002 0.002,0.002 c 0.0691,0.0592 0.10156,0.12846 0.10156,0.2168 v 3.20313 c 0,0.0883 -0.0335,0.1663 -0.10352,0.23632 -0.0588,0.0588 -0.12943,0.0879 -0.21875,0.0879 h -7.29492 c -0.0884,0 -0.16513,-0.0293 -0.23437,-0.0879 -0.0586,-0.0692 -0.0879,-0.14789 -0.0879,-0.23632 v -3.20313 c 0,-0.0893 0.0291,-0.15999 0.0879,-0.21875 0.07,-0.07 0.14603,-0.10351 0.23437,-0.10351 z"
         id="path7082" />
    </g>
    <g
       id="path7039">
      <path
         style="color:#000000;-inkscape-font-specification:'Orbitron, Normal';stroke:none;-inkscape-stroke:none"
         d="m 156.45979,144.43686 h -8.75289 v 3.13963 h 7.04037 v 1.71252 h -7.04037 v 3.13963 h 8.75289 v 1.71252 h -10.46542 v -11.41682 h 10.46542 z"
         id="path7086" />
      <path
         style="color:#000000;-inkscape-font-specification:'Orbitron, Normal';stroke:none;-inkscape-stroke:none"
         d="m 145.96875,142.69727 v 11.4707 h 10.51758 v -1.76563 h -8.75391 v -3.08789 h 7.04102 v -1.76367 h -7.04102 v -3.08789 h 8.75391 v -0.0254 -1.74023 z m 0.0527,0.0527 h 10.41211 v 1.66016 h -8.75195 v 3.19336 h 7.03906 v 1.66015 h -7.03906 v 3.19141 h 8.75195 v 1.66015 h -10.41211 z"
         id="path7088" />
    </g>
  </g>
  <path
     d="m 129.81033,433.14477 c 1.04061,0.12507 2.32403,0.37521 2.80965,0.56283 1.52623,0.53156 3.5034,2.31384 4.26651,3.81473 0.69374,1.31326 0.72843,2.03243 0.83249,11.88193 0.0347,5.75338 0.17343,10.78757 0.24281,11.19405 0.34688,1.3758 1.38748,1.93863 3.64214,1.93863 h 2.08123 v 2.03244 2.03243 h -2.08123 c -2.25466,0 -3.29526,0.56283 -3.64214,1.93864 -0.0694,0.40649 -0.20812,5.44068 -0.24281,11.19404 -0.13875,11.9132 -0.11688,12.22 -2.85717,14.3775 -1.73435,1.40707 -3.17838,1.75693 -7.06333,2.06961 l -2.84435,0.21888 v -1.8761 -1.8761 l 2.08124,-0.1876 c 2.49746,-0.25014 3.81557,-0.81299 4.71743,-2.00117 0.62438,-0.81298 0.65906,-1.75103 0.83249,-11.81941 0.17344,-10.16218 0.20813,-11.00643 0.86718,-11.97575 0.34687,-0.53156 0.77568,-0.90429 0.87346,-0.9666 0.0849,-0.0542 0.49844,-0.35504 0.94937,-0.66773 l 0.88276,-0.55445 -1.0753,-0.50029 c -2.25465,-1.03186 -2.28934,-1.34453 -2.49747,-13.47662 -0.17343,-10.06839 -0.20811,-11.00643 -0.83249,-11.81941 -0.90186,-1.18819 -2.21997,-1.75102 -4.71743,-2.00117 l -2.08124,-0.18761 v -1.81356 -1.84483 l 1.45686,0.0313 c 0.83249,0.0313 2.35873,0.15634 3.39934,0.28141 z"
     id="path1169"
     style="fill:#0196b1;fill-opacity:1;stroke:none;stroke-width:0.0329333" />
  <path
     d="m 61.179679,473.84293 c -0.48562,1.25073 -0.832492,1.62595 -1.907792,2.00117 -1.248733,0.46903 -1.075299,0.50029 4.439945,0.50029 5.515249,0 5.688683,-0.0313 4.439949,-0.50029 -1.075299,-0.37522 -1.422171,-0.75044 -1.907791,-2.00117 l -0.624367,-1.53215 h -1.907791 -1.907787 z"
     id="path1175"
     style="fill:#034bac;fill-opacity:1;stroke:none;stroke-width:0.0329333" />
</svg>
